<mxfile host="65bd71144e">
    <diagram id="AnvghFFxJrj1ynO6DU2Q" name="Page-1">
        <mxGraphModel dx="-230" dy="446" grid="0" gridSize="10" guides="1" tooltips="1" connect="1" arrows="1" fold="0" page="1" pageScale="1" pageWidth="850" pageHeight="1100" background="#ffffff" math="0" shadow="0">
            <root>
                <mxCell id="0"/>
                <mxCell id="1" parent="0"/>
                <mxCell id="86" style="edgeStyle=orthogonalEdgeStyle;rounded=1;html=1;entryX=0;entryY=0.5;entryDx=0;entryDy=0;fontColor=#050505;endArrow=block;endFill=1;strokeColor=#050505;" edge="1" parent="1" source="10" target="81">
                    <mxGeometry relative="1" as="geometry">
                        <Array as="points">
                            <mxPoint x="912" y="665"/>
                        </Array>
                    </mxGeometry>
                </mxCell>
                <mxCell id="10" value="Mecha (Cliente)" style="swimlane;fontStyle=1;align=center;verticalAlign=top;childLayout=stackLayout;horizontal=1;startSize=26;horizontalStack=0;resizeParent=1;resizeParentMax=0;resizeLast=0;collapsible=1;marginBottom=0;fontColor=#050505;strokeColor=#050505;fillColor=none;" parent="1" vertex="1">
                    <mxGeometry x="893" y="468" width="199" height="60" as="geometry"/>
                </mxCell>
                <mxCell id="11" value="" style="line;strokeWidth=1;fillColor=none;align=left;verticalAlign=middle;spacingTop=-1;spacingLeft=3;spacingRight=3;rotatable=0;labelPosition=right;points=[];portConstraint=eastwest;fontColor=#050505;strokeColor=#050505;" parent="10" vertex="1">
                    <mxGeometry y="26" width="199" height="8" as="geometry"/>
                </mxCell>
                <mxCell id="17" value="+ attack(weapon: Weapon): void" style="text;strokeColor=#050505;fillColor=none;align=left;verticalAlign=top;spacingLeft=4;spacingRight=4;overflow=hidden;rotatable=0;points=[[0,0.5],[1,0.5]];portConstraint=eastwest;fontColor=#050505;" parent="10" vertex="1">
                    <mxGeometry y="34" width="199" height="26" as="geometry"/>
                </mxCell>
                <mxCell id="87" style="edgeStyle=orthogonalEdgeStyle;rounded=1;html=1;entryX=1;entryY=0.5;entryDx=0;entryDy=0;fontColor=#050505;endArrow=block;endFill=0;strokeColor=#050505;dashed=1;" edge="1" parent="1" source="20" target="81">
                    <mxGeometry relative="1" as="geometry"/>
                </mxCell>
                <mxCell id="20" value="SwordAdapter" style="swimlane;fontStyle=1;align=center;verticalAlign=top;childLayout=stackLayout;horizontal=1;startSize=26;horizontalStack=0;resizeParent=1;resizeParentMax=0;resizeLast=0;collapsible=1;marginBottom=0;fontColor=#050505;strokeColor=#050505;fillColor=none;" parent="1" vertex="1">
                    <mxGeometry x="1099" y="561" width="140" height="60" as="geometry"/>
                </mxCell>
                <mxCell id="21" value="" style="line;strokeWidth=1;fillColor=none;align=left;verticalAlign=middle;spacingTop=-1;spacingLeft=3;spacingRight=3;rotatable=0;labelPosition=right;points=[];portConstraint=eastwest;fontColor=#050505;strokeColor=#050505;" parent="20" vertex="1">
                    <mxGeometry y="26" width="140" height="8" as="geometry"/>
                </mxCell>
                <mxCell id="22" value="+ use(): void" style="text;strokeColor=#050505;fillColor=none;align=left;verticalAlign=top;spacingLeft=4;spacingRight=4;overflow=hidden;rotatable=0;points=[[0,0.5],[1,0.5]];portConstraint=eastwest;fontColor=#050505;" parent="20" vertex="1">
                    <mxGeometry y="34" width="140" height="26" as="geometry"/>
                </mxCell>
                <mxCell id="88" style="edgeStyle=orthogonalEdgeStyle;rounded=1;html=1;entryX=1;entryY=0.5;entryDx=0;entryDy=0;fontColor=#050505;endArrow=block;endFill=0;strokeColor=#050505;dashed=1;" edge="1" parent="1" source="24" target="81">
                    <mxGeometry relative="1" as="geometry"/>
                </mxCell>
                <mxCell id="24" value="MachineGunAdapter" style="swimlane;fontStyle=1;align=center;verticalAlign=top;childLayout=stackLayout;horizontal=1;startSize=26;horizontalStack=0;resizeParent=1;resizeParentMax=0;resizeLast=0;collapsible=1;marginBottom=0;fontColor=#050505;strokeColor=#050505;fillColor=none;" parent="1" vertex="1">
                    <mxGeometry x="1099" y="635" width="140" height="60" as="geometry"/>
                </mxCell>
                <mxCell id="25" value="" style="line;strokeWidth=1;fillColor=none;align=left;verticalAlign=middle;spacingTop=-1;spacingLeft=3;spacingRight=3;rotatable=0;labelPosition=right;points=[];portConstraint=eastwest;fontColor=#050505;strokeColor=#050505;" parent="24" vertex="1">
                    <mxGeometry y="26" width="140" height="8" as="geometry"/>
                </mxCell>
                <mxCell id="26" value="+ use(): void" style="text;strokeColor=#050505;fillColor=none;align=left;verticalAlign=top;spacingLeft=4;spacingRight=4;overflow=hidden;rotatable=0;points=[[0,0.5],[1,0.5]];portConstraint=eastwest;fontColor=#050505;" parent="24" vertex="1">
                    <mxGeometry y="34" width="140" height="26" as="geometry"/>
                </mxCell>
                <mxCell id="89" style="edgeStyle=orthogonalEdgeStyle;rounded=1;html=1;entryX=1;entryY=0.5;entryDx=0;entryDy=0;fontColor=#050505;endArrow=block;endFill=0;strokeColor=#050505;dashed=1;" edge="1" parent="1" source="28" target="81">
                    <mxGeometry relative="1" as="geometry"/>
                </mxCell>
                <mxCell id="28" value="FireballAdapter" style="swimlane;fontStyle=1;align=center;verticalAlign=top;childLayout=stackLayout;horizontal=1;startSize=26;horizontalStack=0;resizeParent=1;resizeParentMax=0;resizeLast=0;collapsible=1;marginBottom=0;fontColor=#050505;strokeColor=#050505;fillColor=none;" parent="1" vertex="1">
                    <mxGeometry x="1099" y="709" width="140" height="60" as="geometry"/>
                </mxCell>
                <mxCell id="29" value="" style="line;strokeWidth=1;fillColor=none;align=left;verticalAlign=middle;spacingTop=-1;spacingLeft=3;spacingRight=3;rotatable=0;labelPosition=right;points=[];portConstraint=eastwest;fontColor=#050505;strokeColor=#050505;" parent="28" vertex="1">
                    <mxGeometry y="26" width="140" height="8" as="geometry"/>
                </mxCell>
                <mxCell id="30" value="+ use(): void" style="text;strokeColor=#050505;fillColor=none;align=left;verticalAlign=top;spacingLeft=4;spacingRight=4;overflow=hidden;rotatable=0;points=[[0,0.5],[1,0.5]];portConstraint=eastwest;fontColor=#050505;" parent="28" vertex="1">
                    <mxGeometry y="34" width="140" height="26" as="geometry"/>
                </mxCell>
                <mxCell id="47" value="Sword" style="swimlane;fontStyle=1;align=center;verticalAlign=top;childLayout=stackLayout;horizontal=1;startSize=26;horizontalStack=0;resizeParent=1;resizeParentMax=0;resizeLast=0;collapsible=1;marginBottom=0;fontColor=#050505;strokeColor=#050505;fillColor=none;" parent="1" vertex="1">
                    <mxGeometry x="1265" y="561" width="110" height="60" as="geometry"/>
                </mxCell>
                <mxCell id="48" value="" style="line;strokeWidth=1;fillColor=none;align=left;verticalAlign=middle;spacingTop=-1;spacingLeft=3;spacingRight=3;rotatable=0;labelPosition=right;points=[];portConstraint=eastwest;fontColor=#050505;strokeColor=#050505;" parent="47" vertex="1">
                    <mxGeometry y="26" width="110" height="8" as="geometry"/>
                </mxCell>
                <mxCell id="49" value="+ slash(): void" style="text;strokeColor=#050505;fillColor=none;align=left;verticalAlign=top;spacingLeft=4;spacingRight=4;overflow=hidden;rotatable=0;points=[[0,0.5],[1,0.5]];portConstraint=eastwest;fontColor=#050505;" parent="47" vertex="1">
                    <mxGeometry y="34" width="110" height="26" as="geometry"/>
                </mxCell>
                <mxCell id="51" value="MachineGun" style="swimlane;fontStyle=1;align=center;verticalAlign=top;childLayout=stackLayout;horizontal=1;startSize=26;horizontalStack=0;resizeParent=1;resizeParentMax=0;resizeLast=0;collapsible=1;marginBottom=0;fontColor=#050505;strokeColor=#050505;fillColor=none;" parent="1" vertex="1">
                    <mxGeometry x="1265" y="635" width="110" height="60" as="geometry"/>
                </mxCell>
                <mxCell id="52" value="" style="line;strokeWidth=1;fillColor=none;align=left;verticalAlign=middle;spacingTop=-1;spacingLeft=3;spacingRight=3;rotatable=0;labelPosition=right;points=[];portConstraint=eastwest;fontColor=#050505;strokeColor=#050505;" parent="51" vertex="1">
                    <mxGeometry y="26" width="110" height="8" as="geometry"/>
                </mxCell>
                <mxCell id="53" value="+ fire(): void" style="text;strokeColor=#050505;fillColor=none;align=left;verticalAlign=top;spacingLeft=4;spacingRight=4;overflow=hidden;rotatable=0;points=[[0,0.5],[1,0.5]];portConstraint=eastwest;fontColor=#050505;" parent="51" vertex="1">
                    <mxGeometry y="34" width="110" height="26" as="geometry"/>
                </mxCell>
                <mxCell id="55" value="Fireball" style="swimlane;fontStyle=1;align=center;verticalAlign=top;childLayout=stackLayout;horizontal=1;startSize=26;horizontalStack=0;resizeParent=1;resizeParentMax=0;resizeLast=0;collapsible=1;marginBottom=0;fontColor=#050505;strokeColor=#050505;fillColor=none;" parent="1" vertex="1">
                    <mxGeometry x="1266" y="709" width="110" height="60" as="geometry"/>
                </mxCell>
                <mxCell id="56" value="" style="line;strokeWidth=1;fillColor=none;align=left;verticalAlign=middle;spacingTop=-1;spacingLeft=3;spacingRight=3;rotatable=0;labelPosition=right;points=[];portConstraint=eastwest;fontColor=#050505;strokeColor=#050505;" parent="55" vertex="1">
                    <mxGeometry y="26" width="110" height="8" as="geometry"/>
                </mxCell>
                <mxCell id="57" value="+ burn(): void" style="text;strokeColor=#050505;fillColor=none;align=left;verticalAlign=top;spacingLeft=4;spacingRight=4;overflow=hidden;rotatable=0;points=[[0,0.5],[1,0.5]];portConstraint=eastwest;fontColor=#050505;" parent="55" vertex="1">
                    <mxGeometry y="34" width="110" height="26" as="geometry"/>
                </mxCell>
                <mxCell id="59" value="" style="endArrow=block;html=1;endFill=0;fontColor=#050505;strokeColor=#050505;" parent="1" source="20" target="47" edge="1">
                    <mxGeometry width="50" height="50" relative="1" as="geometry">
                        <mxPoint x="1159" y="642.6" as="sourcePoint"/>
                        <mxPoint x="1069" y="689.4" as="targetPoint"/>
                    </mxGeometry>
                </mxCell>
                <mxCell id="60" value="" style="endArrow=block;html=1;endFill=0;fontColor=#050505;strokeColor=#050505;" parent="1" source="24" target="51" edge="1">
                    <mxGeometry width="50" height="50" relative="1" as="geometry">
                        <mxPoint x="1319" y="565" as="sourcePoint"/>
                        <mxPoint x="1369" y="565" as="targetPoint"/>
                    </mxGeometry>
                </mxCell>
                <mxCell id="61" value="" style="endArrow=block;html=1;endFill=0;fontColor=#050505;strokeColor=#050505;" parent="1" source="28" target="55" edge="1">
                    <mxGeometry width="50" height="50" relative="1" as="geometry">
                        <mxPoint x="1319" y="653" as="sourcePoint"/>
                        <mxPoint x="1369" y="653" as="targetPoint"/>
                    </mxGeometry>
                </mxCell>
                <mxCell id="75" value="weapon.use();" style="shape=note;size=15;align=left;spacingLeft=10;html=1;whiteSpace=wrap;fontSize=10;fillColor=#f5f5f5;fontColor=#333333;strokeColor=#080808;" vertex="1" parent="1">
                    <mxGeometry x="1110" y="412" width="92" height="40" as="geometry"/>
                </mxCell>
                <mxCell id="76" style="html=1;startArrow=none;startFill=0;endArrow=oval;endFill=0;dashed=1;exitX=0.5;exitY=1;exitDx=0;exitDy=0;exitPerimeter=0;fillColor=#f5f5f5;strokeColor=#080808;entryX=1;entryY=0.5;entryDx=0;entryDy=0;edgeStyle=orthogonalEdgeStyle;" edge="1" parent="1" source="75" target="17">
                    <mxGeometry relative="1" as="geometry">
                        <mxPoint x="988" y="522.998" as="targetPoint"/>
                        <mxPoint x="966" y="563.01" as="sourcePoint"/>
                    </mxGeometry>
                </mxCell>
                <mxCell id="81" value="Weapon Interface" style="swimlane;fontStyle=1;align=center;verticalAlign=top;childLayout=stackLayout;horizontal=1;startSize=26;horizontalStack=0;resizeParent=1;resizeParentMax=0;resizeLast=0;collapsible=1;marginBottom=0;fontColor=#050505;strokeColor=#050505;fillColor=none;" vertex="1" parent="1">
                    <mxGeometry x="934" y="635" width="110" height="60" as="geometry"/>
                </mxCell>
                <mxCell id="82" value="" style="line;strokeWidth=1;fillColor=none;align=left;verticalAlign=middle;spacingTop=-1;spacingLeft=3;spacingRight=3;rotatable=0;labelPosition=right;points=[];portConstraint=eastwest;fontColor=#050505;strokeColor=#050505;" vertex="1" parent="81">
                    <mxGeometry y="26" width="110" height="8" as="geometry"/>
                </mxCell>
                <mxCell id="83" value="+ use(): void" style="text;strokeColor=#050505;fillColor=none;align=left;verticalAlign=top;spacingLeft=4;spacingRight=4;overflow=hidden;rotatable=0;points=[[0,0.5],[1,0.5]];portConstraint=eastwest;fontColor=#050505;" vertex="1" parent="81">
                    <mxGeometry y="34" width="110" height="26" as="geometry"/>
                </mxCell>
                <mxCell id="85" value="&amp;lt;&amp;lt;interface&amp;gt;&amp;gt;" style="text;html=1;strokeColor=none;fillColor=none;align=center;verticalAlign=middle;whiteSpace=wrap;rounded=0;fontColor=#050505;" vertex="1" parent="1">
                    <mxGeometry x="934" y="605" width="110" height="30" as="geometry"/>
                </mxCell>
            </root>
        </mxGraphModel>
    </diagram>
</mxfile>